<?xml version="1.0" encoding="UTF-8" standalone="no"?>
<!-- Created with Inkscape (http://www.inkscape.org/) -->

<svg
   width="178.34225mm"
   height="178.32022mm"
   viewBox="0 0 178.34225 178.32022"
   version="1.1"
   id="svg5"
   inkscape:version="1.1 (c68e22c387, 2021-05-23)"
   sodipodi:docname="arc reactor.svg"
   xmlns:inkscape="http://www.inkscape.org/namespaces/inkscape"
   xmlns:sodipodi="http://sodipodi.sourceforge.net/DTD/sodipodi-0.dtd"
   xmlns="http://www.w3.org/2000/svg"
   xmlns:svg="http://www.w3.org/2000/svg">
  <sodipodi:namedview
     id="namedview7"
     pagecolor="#ffffff"
     bordercolor="#666666"
     borderopacity="1.0"
     inkscape:pageshadow="2"
     inkscape:pageopacity="0.0"
     inkscape:pagecheckerboard="0"
     inkscape:document-units="px"
     showgrid="false"
     fit-margin-top="0"
     fit-margin-left="0"
     fit-margin-right="0"
     fit-margin-bottom="0"
     inkscape:zoom="0.76791526"
     inkscape:cx="20.184519"
     inkscape:cy="374.39027"
     inkscape:window-width="1920"
     inkscape:window-height="1051"
     inkscape:window-x="-9"
     inkscape:window-y="-9"
     inkscape:window-maximized="1"
     inkscape:current-layer="layer1" />
  <defs
     id="defs2" />
  <g
     inkscape:label="Layer 1"
     inkscape:groupmode="layer"
     id="layer1"
     transform="translate(-10.564032,-49.776587)">
    <path
       style="fill:current;stroke-width:0.264583"
       d="M 93.701083,227.72766 C 17.768286,220.41358 -16.484544,132.24333 35.355236,77.539577 87.199554,22.831042 179.07754,53.69679 188.28619,128.91562 c 6.63622,54.20655 -41.00169,103.97336 -94.585107,98.81204 z m 2.42407,-3.41458 c 0.329344,-1.00541 -1.081413,-1.70356 -4.01157,-1.98522 -45.694156,-4.39231 -79.599347,-44.99534 -75.804797,-90.77974 0.78186,-9.4337 4.06349,-21.81922 7.58598,-28.63096 0.38721,-0.74878 0.38322,-0.87698 -0.0524,-1.68589 -0.66226,-1.22972 -0.81168,-1.13574 -1.86822,1.17504 -24.5647497,53.72601 10.30816,115.19937 69.081106,121.77499 4.613068,0.51611 4.941212,0.52464 5.069903,0.13178 z m 19.139477,-0.95678 c 55.57973,-10.41259 86.20905,-68.54952 63.37377,-120.28853 -1.9456,-4.408232 -1.9675,-4.433632 -2.7216,-3.155522 -0.51642,0.875262 -0.51634,0.884232 0.0161,1.918222 23.8551,46.32587 -4.67808,106.67007 -56.03807,118.51367 -3.59756,0.8296 -6.89931,1.45179 -8.59896,1.62041 -1.90443,0.18894 -2.23012,0.36277 -2.82118,1.50577 l -0.40505,0.78327 2.20843,-0.18841 c 1.21463,-0.10362 3.45858,-0.42262 4.98655,-0.70888 z m -19.257262,-4.51568 c -0.172201,-0.1722 -0.377409,-0.24877 -0.45602,-0.17016 -0.07861,0.0786 -0.06479,0.34656 0.03072,0.59545 0.123061,0.32069 0.255918,0.37027 0.45602,0.17017 0.200099,-0.20011 0.191149,-0.37359 -0.03072,-0.59546 z m 12.642672,0.0161 c 0,-0.46917 -0.0653,-0.50737 -0.39687,-0.23219 -0.21828,0.18116 -0.39688,0.43386 -0.39688,0.56156 0,0.12771 0.1786,0.23219 0.39688,0.23219 0.22812,0 0.39687,-0.23878 0.39687,-0.56156 z m -27.800452,-1.4585 c 0.921338,-1.17129 0.694696,-1.7712 -3.324913,-8.80092 -2.130305,-3.72559 -4.111669,-7.19053 -4.403034,-7.69985 -0.291362,-0.50933 -0.82922,-1.46183 -1.195242,-2.11667 -0.366022,-0.65484 -1.123092,-1.94693 -1.682382,-2.87131 -0.559292,-0.92438 -1.016892,-1.76683 -1.016892,-1.87211 0,-3.16893 -4.112378,-0.57016 -7.715506,4.87571 -6.84413,10.34442 -6.913205,9.78325 1.63009,13.24296 3.128698,1.26701 7.653073,3.10812 10.054166,4.09137 5.144484,2.10666 6.715982,2.34295 7.653713,1.15082 z m 19.069199,-3.51943 v -4.21656 l -0.85989,-0.0829 -0.8599,-0.0829 v -3.83646 -3.83646 l 1.12448,-0.0814 1.124483,-0.0814 v -9.48148 c 0,-7.80347 -0.0644,-9.5062 -0.36401,-9.62116 -0.200213,-0.0768 -1.182473,-1.52862 -2.182813,-3.22621 -1.00034,-1.69759 -2.010497,-3.40364 -2.244791,-3.79123 -0.478544,-0.79165 -7.238264,-12.28777 -13.295937,-22.61213 -2.202836,-3.75439 -4.198792,-7.14767 -4.435453,-7.54062 -0.370197,-0.61467 -7.36128,-12.46957 -8.690938,-14.73737 -5.793833,-9.8817 -7.234658,-12.47449 -7.256616,-13.05842 -0.05723,-1.522 -15.9245,-9.03629 -16.562776,-7.84366 -0.39502,0.7381 -5.74336,-1.18767 -7.36064,-2.65034 -0.0465,-0.0421 0.16534,-0.56645 0.47083,-1.16526 l 0.55543,-1.08874 -3.88587,-1.88573 c -3.97945,-1.93114 -4.59642,-2.02439 -4.59642,-0.69473 0,0.83555 -1.36649,2.32072 -1.88161,2.04503 -0.86834,-0.46472 -0.87972,-0.10285 -0.0353,1.12419 0.43167,0.62732 2.72809,4.53386 5.10314,8.6812 2.37505,4.14734 7.07331,12.24359 10.440567,17.99167 3.367257,5.74807 7.412278,12.71323 8.988938,15.47812 1.57666,2.7649 3.085528,5.3421 3.353038,5.72712 0.267509,0.38502 3.149171,5.26658 6.403689,10.84792 5.29945,9.08829 11.03146,18.84485 12.474469,21.23303 0.291041,0.48168 1.993214,3.36379 3.782604,6.40469 6.830108,11.60712 14.907485,24.88038 15.796562,25.95791 0.169156,0.20501 1.099584,0.32429 2.579684,0.33073 l 2.3151,0.0101 z m 9.173213,3.65 c 0.18197,-0.15103 1.03629,-1.48432 1.89848,-2.96286 1.87658,-3.2181 11.41856,-20.39886 15.47974,-27.87197 0.96341,-1.77281 2.11049,-3.83188 2.54907,-4.57571 0.43858,-0.74383 0.79742,-1.40203 0.79742,-1.46266 0,-0.0606 0.79292,-1.5139 1.76205,-3.2295 0.96912,-1.7156 2.20137,-3.95271 2.73833,-4.97135 1.08505,-2.0584 4.33185,-8.07539 5.3539,-9.92188 0.36247,-0.65484 1.17049,-2.14312 1.79561,-3.30729 0.62511,-1.16417 1.81538,-3.36682 2.64504,-4.89479 0.82966,-1.52797 2.67067,-4.92125 4.09113,-7.54063 1.42046,-2.61937 2.9098,-5.35781 3.30965,-6.08541 0.39984,-0.72761 1.94771,-3.58511 3.43971,-6.35 1.49199,-2.7649 3.03886,-5.6224 3.43749,-6.35 1.22327,-2.23282 4.10254,-7.55792 5.2932,-9.78959 0.62113,-1.16416 1.45359,-2.71198 1.84992,-3.43958 1.354,-2.48572 3.25923,-6.08336 4.66292,-8.80501 0.77145,-1.49577 1.58631,-2.90326 1.8108,-3.12775 0.52463,-0.52463 0.52543,-0.92792 0.001,-0.72685 -0.43884,0.16844 -1.44524,-0.58994 -1.44524,-1.08916 0,-1.327432 -0.61136,-1.312142 -3.55193,0.0888 -1.56638,0.74626 -2.88946,1.35683 -2.94018,1.35683 -0.0507,0 -0.51309,0.24832 -1.02748,0.55182 l -0.93525,0.55181 0.3892,0.9315 c 0.5164,1.2359 0.54743,1.20578 -3.07271,2.98332 l -3.14962,1.54653 -0.59858,-0.76485 -0.59858,-0.76484 -4.22983,2.13542 c -2.32641,1.17448 -5.98812,3.01992 -8.13715,4.10096 l -3.90732,1.96554 0.4127,0.79807 c 0.45476,0.87941 0.4518,0.88618 -3.63045,8.32202 -0.79891,1.4552 -1.9624,3.59833 -2.58553,4.7625 -0.62314,1.16416 -1.21908,2.23573 -1.3243,2.38125 -0.10523,0.14552 -0.70389,1.21708 -1.33035,2.38125 -1.12447,2.08962 -3.19482,5.91789 -5.15118,9.525 -0.55248,1.01864 -1.21274,2.20927 -1.46724,2.64583 -0.25451,0.43656 -0.89338,1.59742 -1.41973,2.57969 -1.38663,2.58773 -2.69415,4.99688 -4.34382,8.00364 -0.79841,1.45521 -2.12874,3.89599 -2.9563,5.42396 -0.82755,1.52797 -1.86609,3.43297 -2.30787,4.23334 -0.44177,0.80036 -1.21967,2.22911 -1.72866,3.175 -0.50899,0.94588 -1.16089,2.13651 -1.44867,2.64583 -0.28779,0.50932 -1.33192,2.41432 -2.32029,4.23333 -0.98837,1.81901 -2.09629,3.84308 -2.46205,4.49792 -0.76838,1.37567 -0.74149,0.87079 -0.65159,12.23698 l 0.0644,8.13594 h 0.89629 0.89629 l 0.19341,3.73531 c 0.21593,4.17046 0.20845,4.19107 -1.52297,4.19814 l -0.99219,0.004 v 1.41405 c 0,0.77772 0.0786,2.69837 0.17463,4.2681 l 0.17462,2.85405 2.39446,-0.18076 c 1.31695,-0.0994 2.54335,-0.30433 2.72533,-0.45535 z m 17.24,-0.65833 c 0.9707,-0.38266 2.24117,-0.9055 2.82325,-1.16186 0.58208,-0.25637 2.24896,-0.96336 3.70417,-1.57109 1.45521,-0.60773 3.00302,-1.26048 3.43958,-1.45056 0.43656,-0.19008 2.57969,-1.09585 4.7625,-2.01282 5.44215,-2.28617 6.08552,-3.07522 4.55971,-5.59213 -4.15305,-6.85069 -7.64116,-11.44875 -9.60648,-12.66339 -1.67617,-1.03593 -1.90653,-0.81045 -5.01351,4.90696 -0.3954,0.72761 -1.28114,2.33495 -1.96831,3.57188 -0.68718,1.23692 -1.90526,3.43958 -2.70684,4.89479 -0.80159,1.45521 -2.24912,4.07983 -3.21673,5.83249 -2.89714,5.24767 -1.70498,7.18823 3.22266,5.24573 z M 39.902476,194.30201 c 0.0485,-0.135 3.77913,-4.60606 8.290275,-9.93568 4.511146,-5.32963 8.30082,-9.95191 8.421497,-10.27174 0.202536,-0.53678 -6.967408,-13.47809 -8.136898,-14.68661 -0.387662,-0.4006 0.02827,-0.46452 -12.720014,1.95497 -1.16417,0.22094 -3.36682,0.62731 -4.89479,0.90304 -10.47538,1.89034 -9.86064,0.99661 -6.47022,9.40653 3.82021,9.47603 14.59024,25.18963 15.51015,22.62949 z m 123.254344,-2.06966 c 6.18345,-6.87737 11.96623,-16.87661 14.80324,-25.5969 1.2853,-3.95071 1.31029,-4.27762 0.34154,-4.46844 -1.27119,-0.2504 -3.79838,-0.67157 -7.34218,-1.22362 -1.89177,-0.2947 -4.86834,-0.77006 -6.61459,-1.05635 -1.74625,-0.2863 -4.72281,-0.76384 -6.61458,-1.06121 -1.89177,-0.29737 -3.70495,-0.59861 -4.02928,-0.66941 -0.78408,-0.17116 -0.64946,-0.38775 -6.45265,10.38166 -1.58374,2.93907 -2.87953,5.46095 -2.87953,5.60418 0,0.21307 6.67217,7.9474 11.22217,13.00865 0.59453,0.66133 1.37861,1.55516 1.74242,1.98629 4.39239,5.20527 4.07696,5.03762 5.82344,3.09515 z m -57.97682,-31.7487 1.86868,-2.84297 -1.32822,-1.34492 -1.32822,-1.34493 1.99661,-3.47464 c 1.09814,-1.91106 1.99661,-3.52946 1.99661,-3.59645 0,-0.067 0.59404,-1.15041 1.32009,-2.4076 0.72605,-1.25719 1.87883,-3.32041 2.56173,-4.58493 0.6829,-1.26452 1.48784,-2.73331 1.78876,-3.26397 1.01835,-1.79581 3.42107,-6.17028 4.23534,-7.71099 l 0.8097,-1.53208 1.19063,0.16006 c 2.51159,0.33765 2.09067,0.65992 3.70224,-2.83444 1.92351,-4.17073 1.56154,-4.63976 -3.7676,-4.8819 l -3.8204,-0.1736 -0.16207,1.36843 c -0.0891,0.75263 -0.2339,1.48465 -0.32169,1.6267 -0.10085,0.16318 -5.80172,0.25828 -15.48184,0.25828 H 85.118137 l -0.368958,-1.25677 -0.368959,-1.25677 -3.541652,0.088 c -3.814386,0.0948 -4.245903,0.25907 -4.622516,1.75962 -0.119767,0.47719 2.321623,6.09588 2.900082,6.67434 0.05684,0.0568 0.795348,-0.13989 1.641136,-0.43716 1.192882,-0.41926 1.585473,-0.46673 1.75034,-0.21162 0.398169,0.61609 9.262009,15.06685 10.994062,17.92366 2.25702,3.72268 3.336445,5.47268 4.067155,6.5938 0.94504,1.44996 0.97998,1.23452 -0.44698,2.75591 -0.66026,0.70395 -1.164257,1.36387 -1.119992,1.46648 0.04426,0.10261 0.968002,1.34235 2.052752,2.75498 l 1.972273,2.56841 h 1.64222 1.64222 z m -9.924215,-9.5161 c -2.35222,-4.24127 -8.94662,-14.76637 -9.782685,-15.61382 -0.47997,-0.4865 -0.635558,0.15549 -0.635558,2.62248 0,6.43206 3.896576,12.2745 9.789583,14.6783 1.806832,0.73702 1.873622,0.55781 0.62866,-1.68696 z m 13.724525,0.54521 c 4.39467,-2.66962 7.17916,-7.40774 7.51779,-12.79239 0.2954,-4.69708 -0.20339,-4.2924 -4.72859,3.83646 -5.69175,10.22438 -5.88178,10.83458 -2.7892,8.95593 z M 24.271606,141.7676 c 8.68317,-0.83556 12.60993,-2.35771 11.76468,-4.56041 -0.0962,-0.25082 -1.28147,-2.30492 -2.63382,-4.56466 -1.35235,-2.25974 -4.03942,-6.78752 -5.97127,-10.06174 -3.71573,-6.29766 -4.37197,-7.14729 -5.51309,-7.13787 -1.8271,0.0151 -2.3105,1.07798 -2.83661,6.23706 -2.36037,23.14595 -2.94822,20.87075 5.19011,20.08762 z m 156.883574,-0.80308 c 1.31455,-0.67978 1.31281,-0.44227 0.11608,-15.89625 -0.79105,-10.21529 -0.93787,-10.68957 -3.309,-10.68957 -1.54617,0 -1.00614,-0.75744 -5.94206,8.33438 -2.29108,4.2201 -4.85988,8.92307 -5.70844,10.45104 -2.75779,4.96581 -2.81279,5.59317 -0.57239,6.52927 3.09473,1.29306 13.68479,2.16627 15.41581,1.27113 z m -74.68263,-17.739 c -0.8461,-0.84611 -6.08505,-1.33121 -8.737653,-0.80907 -3.889452,0.7656 -3.342238,0.9415 2.955603,0.95004 3.26209,0.004 5.86401,-0.059 5.78205,-0.14097 z m -2.58501,-9.65292 c 8.80401,-0.13915 19.56756,-0.25282 23.919,-0.25261 l 7.9117,2.6e-4 7.03726,-3.61786 c 3.87049,-1.98982 7.84092,-4.02885 8.82319,-4.53117 1.93418,-0.98913 1.9936,-1.07764 1.36625,-2.0351 -0.57776,-0.88178 -0.49893,-0.95467 2.99095,-2.76575 3.49362,-1.813022 3.67502,-1.854732 4.09146,-0.940742 0.45715,1.003332 0.67109,0.928032 6.69873,-2.35741 1.66911,-0.90976 1.6086,-1.32096 -0.66146,-4.49433 l -0.92604,-1.29453 -19.31458,0.17426 c -10.62302,0.0958 -26.10114,0.23405 -34.39583,0.30713 -24.062114,0.212 -73.447144,0.92496 -74.689964,1.07828 -1.24513,0.15361 -2.08426,1.04517 -3.24978,3.4528 -0.68939,1.42411 -0.87592,1.22502 3.06266,3.26905 1.74625,0.906262 3.34114,1.781532 3.54419,1.945042 0.28429,0.22893 0.43641,0.18597 0.66146,-0.18681 0.89013,-1.474412 0.70525,-1.478352 3.786451,0.0806 4.328657,2.19013 4.101539,1.99345 3.575626,3.0963 -0.525512,1.10201 -1.08201,0.67111 4.834549,3.74344 7.803496,4.05218 10.485337,5.39565 11.199114,5.6102 0.749194,0.22521 13.325987,0.13621 39.735064,-0.28118 z M 34.699006,92.947458 c -0.0899,-0.14552 -0.40165,-0.26459 -0.69269,-0.26459 -0.29104,0 -0.45558,0.11907 -0.36565,0.26459 0.0899,0.14552 0.40165,0.26458 0.69269,0.26458 0.29104,0 0.45558,-0.11906 0.36565,-0.26458 z m 132.688534,-1.32292 c 0.30816,-0.19915 0.23074,-0.25739 -0.34634,-0.26053 -0.42891,-0.002 -0.67407,0.10784 -0.5797,0.26053 0.20303,0.32852 0.4177,0.32852 0.92604,0 z M 33.097006,87.751171 C 66.725072,44.110658 131.36454,43.193916 165.74894,85.869852 c 2.58001,3.202166 4.8136,4.682806 4.8136,3.190926 0,-0.747383 -5.35745,-7.042892 -9.64971,-11.339331 C 123.3316,40.103706 61.182504,45.147317 30.200956,88.329159 c -1.72671,2.406679 -1.74453,2.502819 -0.46289,2.497539 0.95221,-0.004 1.08754,-0.12784 3.35894,-3.075527 z m 33.440865,-6.383427 c 0.82898,-1.076127 -0.114106,-4.602221 -2.634882,-9.851539 -2.684126,-5.589482 -2.735638,-5.603358 -8.030241,-2.163169 -15.260662,9.915675 -14.858112,9.575117 -13.780714,11.658579 0.525949,1.017074 1.230429,1.061452 14.567384,0.917654 8.652914,-0.09329 9.55736,-0.144706 9.878453,-0.561525 z m 89.422399,0.123764 c 2.02717,-2.157825 1.23616,-3.299003 -5.22322,-7.535459 -14.53736,-9.534487 -13.0912,-9.198367 -15.76151,-3.66333 -5.70814,11.831847 -5.72739,11.80682 9.08255,11.80682 h 11.33096 z m -45.44478,-2.170094 c 0.39889,-1.309688 0.97027,-3.214688 1.26975,-4.233334 0.29947,-1.018646 1.21035,-4.054739 2.02418,-6.746875 3.35712,-11.10539 3.19947,-9.835683 1.27687,-10.283676 -9.94124,-2.316452 -31.096405,-2.203669 -33.478554,0.178482 -0.162118,0.162118 0.76921,3.396928 2.57674,8.94985 3.680237,11.306076 4.254277,13.046212 4.593473,13.924567 l 0.282168,0.730679 10.36506,-0.06922 10.365063,-0.06922 z"
       id="path275" />
  </g>
</svg>
