<?xml version="1.0" encoding="UTF-8" standalone="no"?>
<!-- Created with Inkscape (http://www.inkscape.org/) -->

<svg
   width="171.17253mm"
   height="160.50256mm"
   viewBox="0 0 171.17253 160.50256"
   version="1.1"
   id="svg5"
   inkscape:version="1.1 (c68e22c387, 2021-05-23)"
   sodipodi:docname="triquestra.svg"
   xmlns:inkscape="http://www.inkscape.org/namespaces/inkscape"
   xmlns:sodipodi="http://sodipodi.sourceforge.net/DTD/sodipodi-0.dtd"
   xmlns="http://www.w3.org/2000/svg"
   xmlns:svg="http://www.w3.org/2000/svg">
  <sodipodi:namedview
     id="namedview7"
     pagecolor="#ffffff"
     bordercolor="#666666"
     borderopacity="1.0"
     inkscape:pageshadow="2"
     inkscape:pageopacity="0.0"
     inkscape:pagecheckerboard="0"
     inkscape:document-units="mm"
     showgrid="false"
     fit-margin-top="0"
     fit-margin-left="0"
     fit-margin-right="0"
     fit-margin-bottom="0"
     inkscape:zoom="0.76791526"
     inkscape:cx="310.58114"
     inkscape:cy="330.11455"
     inkscape:window-width="1920"
     inkscape:window-height="1051"
     inkscape:window-x="-9"
     inkscape:window-y="-9"
     inkscape:window-maximized="1"
     inkscape:current-layer="layer1" />
  <defs
     id="defs2" />
  <g
     inkscape:label="Layer 1"
     inkscape:groupmode="layer"
     id="layer1"
     transform="translate(-22.887687,-61.220813)">
    <path
       style="fill:current;stroke:none;stroke-width:0.264583"
       d="m 108.00331,61.275809 c -4.84161,1.098029 -10.308957,6.22381 -14.022913,9.323694 -13.491104,11.260667 -22.620288,26.134563 -27.590486,42.883747 -1.272646,4.28784 -2.00025,8.79608 -2.531004,13.22917 -0.218546,1.82536 0.219604,4.96517 -0.831585,6.51431 -0.922338,1.3589 -3.186113,2.3241 -4.501092,3.30887 -3.126052,2.34051 -6.100498,4.79981 -8.995833,7.41971 -7.32962,6.63205 -14.050883,15.7316 -17.991667,24.82586 -4.142766,9.56045 -6.94314,18.97671 -7.982209,29.36875 -0.268656,2.68684 -1.387539,8.13885 0.04818,10.53438 0.781098,1.30334 2.929594,2.08465 4.229862,2.76225 3.530733,1.83939 7.112,3.49383 10.847917,4.87522 16.073702,5.94412 34.471769,7.22921 51.064583,2.61805 4.116652,-1.14406 8.253413,-2.35294 12.170837,-4.08464 1.84864,-0.8173 4.58046,-2.87417 6.61458,-2.87417 2.01665,0 4.74768,2.05819 6.61458,2.83448 4.4794,1.86267 9.05272,3.35809 13.75833,4.5347 13.97133,3.49276 28.7446,2.84559 42.59792,-0.79666 5.76818,-1.5166 11.3882,-3.78804 16.66875,-6.54924 1.60655,-0.84005 4.29048,-1.75365 5.30807,-3.31999 0.98531,-1.51712 0.45191,-3.8391 0.29316,-5.5073 -0.31115,-3.26813 -0.30004,-6.52013 -0.76703,-9.78958 -2.29632,-16.07132 -9.34349,-31.80927 -20.22475,-43.92083 -3.56711,-3.97061 -7.36176,-7.6753 -11.59695,-10.94026 -1.98967,-1.53379 -5.79623,-3.19934 -7.1374,-5.2996 -0.8001,-1.25281 -0.44476,-3.25332 -0.61092,-4.66223 -0.39873,-3.37635 -0.89747,-6.71777 -1.56501,-10.05416 -1.74784,-8.73734 -5.08238,-17.11828 -9.43531,-24.870841 -5.88989,-10.489882 -14.22691,-19.411341 -23.84928,-26.556334 -2.2815,-1.693995 -4.69053,-3.229319 -7.14375,-4.66143 -1.00885,-0.589015 -2.21509,-1.423622 -3.43958,-1.145926 m 3.96875,140.842861 v -0.52917 c 34.74164,-21.44316 44.83047,-70.69614 24.23583,-105.039584 -5.09032,-8.488892 -11.52048,-15.824994 -19.20875,-22.063313 -1.89124,-1.534557 -5.91343,-5.496401 -8.46666,-5.496216 -1.1057,7.9e-5 -2.28124,1.123209 -3.175,1.681401 -2.91042,1.817766 -5.605727,4.028969 -8.202083,6.26446 -11.212248,9.65364 -19.074342,22.289134 -23.63523,36.282422 -1.146968,3.51922 -1.922462,7.20011 -2.537089,10.84792 -0.249502,1.48087 -0.04233,3.92191 -0.82259,5.20461 -0.609335,1.00198 -2.137304,1.50998 -3.167591,1.93914 0,-12.27217 4.430712,-25.16373 10.471943,-35.718758 5.494603,-9.6003 12.798161,-17.844849 21.54264,-24.603392 2.15926,-1.668859 6.68549,-5.942912 9.525,-5.942912 2.01427,0 4.74027,2.571909 6.35,3.64699 6.07695,4.058788 11.55753,9.139846 16.24806,14.728481 19.80168,23.592371 25.36031,58.675061 11.99488,86.783331 -4.80589,10.10656 -11.20775,19.75724 -19.77628,27.09889 -3.52187,3.01731 -6.6884,7.38214 -11.37708,4.9157 m 31.22083,-74.6125 c -3.58642,-0.53711 -7.07787,-2.5908 -10.58333,-3.59119 -8.03143,-2.29182 -16.51,-3.65099 -24.87083,-3.5515 -7.84569,0.0934 -15.74165,1.39964 -23.283333,3.5515 -3.505465,1.00039 -6.996907,3.05408 -10.583334,3.59119 2.145771,-16.96455 9.578975,-32.597729 21.695834,-44.714587 2.80326,-2.803287 5.802313,-5.353553 8.995833,-7.703529 1.05198,-0.774118 2.58683,-2.231814 3.96875,-2.231814 1.38192,0 2.91676,1.457669 3.96875,2.231814 3.19352,2.349976 6.19257,4.900242 8.99583,7.703529 12.12268,12.122678 19.54927,27.743417 21.69583,44.714587 m 0.52917,7.67292 c -3.53748,-0.63051 -7.13105,-2.90725 -10.58333,-4.05686 -6.18252,-2.05899 -12.57089,-3.21919 -19.05,-3.83567 -28.912079,-2.7514 -58.896779,13.63504 -73.249975,38.58419 -5.213244,9.06198 -8.68516,18.74361 -10.165424,29.10417 -0.320358,2.24208 -1.896692,8.0092 -0.297868,9.89277 2.335292,2.75166 8.19613,4.15396 11.482017,5.40226 13.4874,5.12366 28.545896,5.77136 42.597917,2.96122 3.869002,-0.77364 7.683764,-1.89468 11.377083,-3.28745 1.671902,-0.6305 4.015052,-2.23176 5.82083,-2.14048 1.11522,0.0561 2.18784,0.99774 3.175,1.45918 v 0.52916 c -18.15888,9.68058 -42.852178,11.54642 -62.17708,4.34552 -4.058576,-1.51209 -8.027141,-2.98688 -11.90625,-4.9403 -1.166521,-0.58737 -3.510068,-1.40652 -4.073684,-2.66726 -0.773456,-1.73011 0.01437,-4.44818 0.09451,-6.26296 0.260853,-5.9047 1.366494,-11.78057 2.997809,-17.4625 7.571422,-26.37207 28.310178,-46.76483 54.162616,-55.29765 14.751844,-4.86912 30.825809,-4.69662 45.772909,-0.9599 3.42662,0.85672 6.78921,1.99654 10.05417,3.3438 1.09299,0.45085 2.96148,0.89376 3.62003,1.95236 0.5678,0.91308 0.34872,2.30955 0.34872,3.3364 m -37.30625,-4.6871 c 9.18448,-1.08347 20.03848,1.49437 28.575,4.7379 2.03491,0.77337 7.30568,2.04152 8.39549,4.02113 0.59955,1.08876 0.0283,3.46657 -0.118,4.65932 -0.45905,3.73671 -0.93371,7.46151 -1.8968,11.1125 -3.63352,13.77182 -10.87014,25.70453 -20.93277,35.71848 -2.51884,2.50666 -5.32898,4.75271 -8.20209,6.83921 -0.93768,0.68078 -2.25769,1.92882 -3.43958,2.08757 -1.29725,0.17462 -2.97656,-1.40521 -3.96875,-2.10079 -3.43085,-2.4056 -6.566954,-5.1906 -9.524996,-8.14864 -10.086975,-10.08698 -17.458002,-23.26323 -20.267083,-37.30625 -0.56224,-2.80988 -0.899583,-5.63166 -1.27635,-8.46667 -0.151871,-1.14115 -0.542925,-3.1152 -0.06958,-4.19814 0.829204,-1.89733 5.995723,-3.35465 7.854685,-4.00394 8.334375,-2.91148 16.190383,-3.92748 24.870834,-4.95168 m 47.625,7.06835 c 5.68457,3.16785 10.80929,8.16821 15.12596,12.96458 9.61073,10.67858 16.60817,23.71063 19.53366,37.83541 0.91361,4.4114 1.25228,8.77835 1.77721,13.22917 0.15505,1.3126 0.58076,4.29154 -0.34846,5.34749 -1.28852,1.46421 -3.937,2.33601 -5.66129,3.18374 -5.61154,2.75881 -11.62923,4.78631 -17.72708,6.13304 -26.46706,5.84597 -54.90633,-1.65206 -74.612501,-20.49542 -11.101387,-10.61535 -19.12276,-24.25753 -22.893073,-39.14801 -0.798512,-3.15252 -1.362604,-6.3082 -1.824566,-9.525 -0.150548,-1.04987 -0.667279,-2.88238 -0.254265,-3.8825 0.43524,-1.05384 2.046023,-1.74625 3.011488,-2.20292 0.837406,40.57174 38.557197,73.81875 78.052087,73.81875 10.20498,0 20.12526,-1.76451 29.63333,-5.55625 2.39263,-0.95409 7.56867,-2.32648 8.98843,-4.5982 0.53445,-0.85487 0.29183,-2.37304 0.26802,-3.3393 -0.0799,-3.26734 -0.71623,-6.57146 -1.2536,-9.78959 -2.44184,-14.62246 -9.73984,-27.87358 -19.4556,-38.89374 -2.45666,-2.7866 -5.27474,-5.28003 -8.12642,-7.65149 -1.30863,-1.08797 -3.3647,-2.13519 -4.32779,-3.54039 -0.59901,-0.87365 -0.29448,-2.96254 0.0945,-3.88937 m -90.222917,7.9375 c 2.851414,15.35006 7.029714,29.48093 16.781198,42.06874 3.021806,3.90076 6.231731,7.765 9.941718,11.03683 2.246842,1.98173 6.327511,4.30557 7.672917,6.95484 -16.377708,5.54064 -31.915629,7.85257 -48.947917,3.53854 -3.820054,-0.96758 -7.490857,-2.25055 -11.1125,-3.80339 -1.303708,-0.5588 -3.383782,-1.20226 -4.338267,-2.28494 -0.886486,-1.00568 -0.378301,-3.13293 -0.235188,-4.32938 0.440002,-3.67903 1.000072,-7.22868 1.815545,-10.84791 2.751825,-12.2137 9.074784,-23.14072 17.19781,-32.54375 2.780242,-3.21813 7.098242,-8.39814 11.224684,-9.78958 m 55.033337,60.06041 c 1.03849,-2.04523 3.83804,-3.55626 5.55625,-5.06809 3.77772,-3.32423 7.24932,-6.89716 10.42167,-10.80691 10.30473,-12.69973 16.3748,-28.03313 18.41791,-44.18541 3.55441,1.19856 6.94134,5.32394 9.52394,7.9375 9.20459,9.31544 15.50829,21.26667 18.81717,33.86666 0.98531,3.75259 1.43827,7.54116 1.89706,11.37708 0.14288,1.19645 0.65114,3.3237 -0.23521,4.32938 -0.95462,1.08268 -3.03477,1.72614 -4.33838,2.28494 -3.45307,1.48061 -6.95139,2.71436 -10.58333,3.67374 -17.15426,4.53126 -32.9602,2.17885 -49.47708,-3.40889 z"
       id="path576" />
  </g>
</svg>
