<?xml version="1.0" encoding="UTF-8" standalone="no"?>
<!-- Created with Inkscape (http://www.inkscape.org/) -->

<svg
   width="173.45276mm"
   height="173.23753mm"
   viewBox="0 0 173.45276 173.23753"
   version="1.1"
   id="svg5"
   inkscape:version="1.1 (c68e22c387, 2021-05-23)"
   sodipodi:docname="hydra.svg"
   xmlns:inkscape="http://www.inkscape.org/namespaces/inkscape"
   xmlns:sodipodi="http://sodipodi.sourceforge.net/DTD/sodipodi-0.dtd"
   xmlns="http://www.w3.org/2000/svg"
   xmlns:svg="http://www.w3.org/2000/svg">
  <sodipodi:namedview
     id="namedview7"
     pagecolor="#ffffff"
     bordercolor="#666666"
     borderopacity="1.0"
     inkscape:pageshadow="2"
     inkscape:pageopacity="0.0"
     inkscape:pagecheckerboard="0"
     inkscape:document-units="mm"
     showgrid="false"
     fit-margin-top="0"
     fit-margin-left="0"
     fit-margin-right="0"
     fit-margin-bottom="0"
     inkscape:zoom="0.38395763"
     inkscape:cx="-485.73068"
     inkscape:cy="376.34361"
     inkscape:window-width="1920"
     inkscape:window-height="1051"
     inkscape:window-x="-9"
     inkscape:window-y="-9"
     inkscape:window-maximized="1"
     inkscape:current-layer="layer1" />
  <defs
     id="defs2" />
  <g
     inkscape:label="Layer 1"
     inkscape:groupmode="layer"
     id="layer1"
     transform="translate(-250.27166,-107.77785)">
    <path
       style="fill:current;stroke-width:0.264583"
       d="m 329.42689,280.69026 c -61.16393,-5.17903 -97.56245,-71.1202 -69.5793,-126.05293 32.04378,-62.904013 123.0702,-62.358987 154.66116,0.92604 30.15525,60.40894 -17.72857,130.83 -85.08186,125.12689 z m 17.59479,-8.83888 c 57.86598,-7.71457 87.38836,-73.81871 54.41615,-121.84426 -33.06194,-48.15625 -105.93433,-44.18233 -133.42544,7.27604 -29.90666,55.97984 16.26603,122.93302 79.00929,114.56822 z m -31.22216,-10.79416 c -6.48684,-3.4974 -17.80442,-14.43404 -19.28791,-18.63868 -0.79085,-2.24152 4.27406,-15.7143 8.9649,-23.84684 0.65554,-1.1365 1.2656,-2.43497 1.35571,-2.88548 0.22338,-1.11693 1.27696,-2.10467 1.79041,-1.67855 0.79757,0.66193 3.34176,-0.95813 3.34176,-2.12791 v -0.98796 l 1.84736,-0.59499 1.84736,-0.59498 0.62242,0.58474 0.62242,0.58473 1.63126,-0.58693 1.63126,-0.58694 v -1.10809 -1.1081 l 1.72451,-0.73293 1.7245,-0.73292 0.60765,0.57086 c 1.36104,1.27863 3.72003,-0.32325 6.49611,-4.41121 0.95722,-1.40956 3.54139,-2.95543 4.9405,-2.95543 0.41861,0 0.0872,11.04604 -0.34587,11.52767 -0.58381,0.64929 -4.3344,5.06089 -4.71759,5.54903 -0.1683,0.2144 -3.21411,0.95534 -7.40833,1.80217 -10.19281,2.05799 -13.32002,4.11179 -16.76982,11.01361 -1.88204,3.76528 -2.55331,10.12242 -1.10895,10.50208 0.81511,0.21426 2.2071,3.12748 1.8592,3.89104 -0.29352,0.64421 0.069,1.33956 1.66184,3.18763 0.12439,0.14432 0.43047,0.0467 0.74441,-0.2374 0.88493,-0.80085 3.48114,1.03884 3.27332,2.3195 -0.13959,0.86016 -0.10197,0.90448 1.24132,1.46273 1.79587,0.74633 1.9806,0.72936 2.37304,-0.21806 0.31661,-0.76437 0.3911,-0.79375 2.01292,-0.79375 h 1.68414 l 0.39905,0.95507 c 0.43319,1.03677 0.27613,1.01725 2.82076,0.35065 0.93852,-0.24585 0.95825,-0.27685 0.75371,-1.18377 -0.2886,-1.27962 1.79758,-3.07347 2.75727,-2.37091 1.11414,0.81563 1.2829,0.78533 2.31917,-0.41639 1.15538,-1.33983 1.22401,-1.70434 0.47166,-2.50518 -0.94942,-1.01061 0.0748,-3.13405 1.56532,-3.2452 l 1.091,-0.0814 v -1.57229 c 0,-1.20267 -0.0909,-1.57228 -0.38663,-1.57228 -0.23698,0 -0.5442,-0.53061 -0.79375,-1.37094 -0.53609,-1.80524 -0.52235,-1.9396 0.26141,-2.55611 l 0.66854,-0.52587 -0.73276,-1.21312 c -0.55347,-0.91632 -0.89506,-1.21513 -1.39614,-1.22131 -0.8761,-0.0108 -2.38317,-1.9675 -2.38317,-3.09417 0,-0.44088 -0.1786,-0.94982 -0.39688,-1.13098 -1.16741,-0.96887 0.41868,-0.87131 2.76052,0.1698 0.98147,0.43633 2.05182,1.27153 3.37344,2.63232 l 1.93583,1.99319 v 8.43021 8.43021 l -0.88562,2.59974 c -0.4871,1.42985 -1.40983,3.6713 -2.05052,4.98099 -1.32432,2.70714 -0.85289,2.41885 -6.72115,4.11002 -1.60073,0.46132 -3.8393,1.12427 -4.97459,1.47322 -2.63498,0.80991 -2.90406,0.79683 -4.81632,-0.23418 z m 38.10133,0.46936 c -0.82202,-0.27769 -6.49871,-1.966 -10.78621,-3.20795 -0.74439,-0.21563 -2.51861,-3.91386 -3.91282,-8.156 l -0.7791,-2.37052 v -8.12241 -8.12241 l 1.18113,-1.44995 c 1.82959,-2.24602 4.0415,-3.74502 6.09113,-4.12793 1.34838,-0.25191 1.35205,-0.24884 0.76844,0.64185 -0.23428,0.35756 -0.35231,0.84203 -0.2623,1.07661 0.27332,0.71225 -1.5934,3.01716 -2.44357,3.01716 -0.56754,0 -0.83064,0.23585 -1.34525,1.20589 l -0.63972,1.20589 0.66555,0.66556 c 0.79095,0.79095 0.33665,3.48655 -0.63022,3.73939 -0.38877,0.10167 -0.47477,0.40612 -0.47477,1.6808 v 1.55664 h 1.06774 c 1.58976,0 2.71377,2.5441 1.57809,3.57187 -0.69109,0.62544 -0.68941,0.63352 0.43227,2.07325 1.09275,1.40259 1.19054,1.43333 2.22231,0.69865 l 0.75188,-0.53538 1.20268,0.84772 c 1.14248,0.8053 1.19474,0.89734 1.04418,1.83894 l -0.1585,0.9912 1.40165,0.41625 c 1.83705,0.54554 1.7751,0.55937 2.28494,-0.50979 0.64307,-1.34852 3.63351,-1.44434 4.12875,-0.1323 0.35625,0.94382 0.50034,0.95828 2.38038,0.23883 1.43617,-0.5496 1.44897,-0.56423 1.33145,-1.52136 -0.1653,-1.3463 2.12283,-2.98301 3.19143,-2.28284 0.99659,0.65299 3.11267,-2.37145 2.25752,-3.2266 -0.32058,-0.32059 1.05209,-2.82464 1.94834,-3.5542 2.15366,-1.75309 0.37119,-9.11341 -3.43342,-14.17748 -3.82694,-5.0938 -4.9702,-5.62957 -16.88482,-7.91267 -4.87173,-0.93354 -4.428,-0.68299 -7.35643,-4.15368 l -2.56544,-3.04049 v -5.61306 c 0,-5.24036 0.0307,-5.60069 0.46302,-5.42676 0.25466,0.10247 1.09781,0.4331 1.87366,0.73474 0.77585,0.30164 1.60928,0.82965 1.85208,1.17335 3.52515,4.9902 5.81972,6.73666 7.05603,5.37056 1.02222,-1.12955 3.90045,0.20121 4.10104,1.89613 0.12851,1.08582 0.17689,1.13505 1.68996,1.71967 l 1.55767,0.60185 0.76084,-0.54176 0.76084,-0.54177 1.71639,0.57118 c 1.70108,0.56608 1.71639,0.57993 1.71639,1.55282 0,1.16382 2.54724,2.781 3.34176,2.1216 0.51308,-0.42582 1.59428,0.5867 1.83186,1.71548 0.0957,0.45467 0.53811,1.42199 0.98316,2.14959 4.30845,7.04391 10.12778,21.9974 9.47915,24.35784 -0.8029,2.92183 -11.31428,13.81342 -16.5854,17.18531 -3.72351,2.3819 -4.94219,2.7571 -6.85574,2.11069 z m -73.37404,-22.53025 c -1.28151,-0.53428 -9.34958,-10.82185 -10.87104,-13.86163 -5.86982,-11.72753 -5.93769,-31.66454 -0.12411,-36.45658 3.34464,-2.75693 17.78942,-3.42445 25.73771,-1.18938 l 2.48727,0.69942 0.47943,-0.65815 c 0.68342,-0.93819 3.57991,-0.55195 3.8472,0.51301 0.27727,1.10471 2.28002,1.83873 3.38837,1.24185 1.15238,-0.6206 3.57945,0.53567 3.58638,1.70857 0.005,0.92465 0.18436,1.13945 1.66538,1.99961 l 1.27254,0.73909 0.72631,-0.69585 c 0.89707,-0.85945 0.8148,-0.86288 2.37851,0.0993 1.13643,0.69925 1.30985,0.92642 1.4383,1.88412 0.29941,2.2322 0.56828,2.16499 6.29783,-1.57426 4.95338,-3.2327 4.14167,-3.21413 10.29417,-0.23544 1.02696,0.4972 1.49271,2.27676 0.85584,3.27011 -0.19262,0.30043 -6.04301,3.25876 -9.28893,4.69707 -0.92742,0.41095 -2.81093,1.2763 -4.18558,1.923 -3.96328,1.86451 -5.41117,1.83458 -9.78848,-0.20237 -3.13524,-1.45896 -8.33147,-3.6545 -11.7241,-4.95373 -8.50897,-3.25857 -7.9476,-3.08745 -10.05417,-3.0648 -3.4648,0.0373 -8.49807,2.0946 -11.16496,4.56366 -3.15536,2.92131 -6.00073,7.65145 -5.2886,8.79175 0.65098,1.04238 0.40082,3.92129 -0.37131,4.2731 -0.65292,0.29749 -0.67672,0.38073 -0.50401,1.76305 0.28223,2.25889 0.48074,2.61055 1.3977,2.47597 0.72005,-0.10568 0.84896,0.007 1.60393,1.40081 l 0.82096,1.51573 -0.65712,0.78094 c -0.75607,0.89854 -0.59976,1.26981 1.30508,3.09982 l 0.94602,0.90886 0.6154,-0.57813 c 0.75268,-0.70711 0.89022,-0.71043 2.41143,-0.0584 1.18374,0.50741 1.21256,0.54807 1.21256,1.71048 0,1.38992 0.27981,1.61701 2.32709,1.88859 l 1.36028,0.18045 0.16973,-1.0614 c 0.1555,-0.97247 0.25042,-1.07475 1.13287,-1.22069 2.03931,-0.33726 2.37004,-0.23876 2.93828,0.87508 l 0.53067,1.0402 1.63156,-0.63941 c 1.99186,-0.7806 1.85865,-0.6335 1.54954,-1.7113 -0.24625,-0.85864 -0.20391,-0.94394 0.99672,-2.00775 l 1.25389,-1.11101 0.87381,0.5341 c 0.4806,0.29375 0.9045,0.49074 0.94202,0.43777 1.32931,-1.87752 1.76155,-2.87281 1.45841,-3.35822 -0.68895,-1.10319 0.16033,-3.48499 1.24265,-3.48499 0.90522,0 0.90707,-0.003 0.91068,-1.25677 0.002,-0.69122 0.0754,-1.52466 0.16315,-1.85208 0.13937,-0.52006 0.0597,-0.59531 -0.63045,-0.59531 -1.09502,0 -1.66127,-3.19333 -0.70672,-3.98553 0.30178,-0.25046 0.37349,-0.60687 0.25936,-1.28917 l -0.15773,-0.94301 0.68015,0.79375 c 1.33781,1.56125 3.149,5.68503 3.13602,7.14021 -0.018,2.01374 -3.41113,10.50097 -7.45888,18.65666 l -2.03539,4.10105 -4.23333,0.84896 c -2.32834,0.46694 -4.76912,0.96673 -5.42396,1.11065 -1.76582,0.38808 -3.26194,0.54298 -3.65633,0.37856 z m 110.94487,-0.006 c -0.29104,-0.0659 -2.85088,-0.59556 -5.68854,-1.17702 -2.83766,-0.58147 -5.34399,-1.10954 -5.56963,-1.1735 -1.24495,-0.35289 -9.55579,-19.91355 -9.60376,-22.60371 -0.0342,-1.91552 1.35993,-5.24961 2.987,-7.14375 l 0.79547,-0.92604 -0.15214,0.82836 c -0.10093,0.54954 -5.3e-4,1.05966 0.29815,1.51558 0.81049,1.23697 0.32014,3.87377 -0.72039,3.87377 -0.75583,0 -0.79155,0.0465 -0.63548,0.82682 0.0909,0.45475 0.16536,1.28819 0.16536,1.85208 0,0.98311 0.0358,1.02526 0.87147,1.02526 1.03514,0 1.91083,2.54 1.24389,3.60796 -0.2656,0.42528 -0.17914,0.72557 0.54375,1.88845 0.94825,1.52542 0.95859,1.53139 1.69094,0.97747 1.25243,-0.94729 3.41797,0.72203 3.27689,2.52601 l -0.0863,1.10373 1.63201,0.59559 1.63202,0.5956 0.45869,-1.0172 c 0.72337,-1.60414 3.84243,-1.36903 4.08249,0.30773 0.28228,1.97172 3.49196,1.18315 3.70416,-0.91005 l 0.13229,-1.30493 1.50721,-0.54042 1.50721,-0.54042 0.67956,0.63841 0.67956,0.63841 1.02092,-0.9969 c 1.61723,-1.57918 1.79616,-2.07678 1.09888,-3.05601 l -0.58463,-0.82104 0.78299,-1.38317 c 0.69505,-1.22782 0.88238,-1.38473 1.66784,-1.39701 0.95546,-0.0149 0.99689,-0.10029 1.42076,-2.92687 0.15216,-1.01468 0.11392,-1.10991 -0.5084,-1.26611 -0.76271,-0.19142 -1.01711,-3.31904 -0.35608,-4.37753 0.7962,-1.2749 -3.87362,-8.10714 -6.84284,-10.0115 -2.71388,-1.7406 -7.59016,-3.48021 -9.78643,-3.49131 -1.90364,-0.01 -13.29087,4.2581 -21.12613,7.91767 -5.02432,2.34669 -6.11903,2.37412 -10.75482,0.26953 -3.8106,-1.72996 -9.98308,-4.67305 -11.72197,-5.58913 l -1.33571,-0.70367 v -1.51652 -1.51652 l 3.04271,-1.40605 c 3.87725,-1.79169 3.29238,-1.88763 8.26221,1.35536 5.56588,3.63193 5.84953,3.69789 6.23338,1.44936 0.17182,-1.00645 0.35544,-1.2493 1.45603,-1.92566 l 1.25941,-0.77397 0.91777,0.70001 0.91777,0.70002 1.2155,-0.71233 c 0.66852,-0.39178 1.25466,-0.84374 1.30253,-1.00435 0.0479,-0.1606 0.15364,-0.59895 0.23504,-0.97409 0.26233,-1.20892 2.64972,-2.30087 3.74311,-1.71204 1.11084,0.59822 3.19129,-0.16033 3.34138,-1.2183 0.14654,-1.033 3.21103,-1.47438 3.87816,-0.55856 l 0.47457,0.65148 1.83626,-0.5446 c 6.42686,-1.9061 20.37415,-1.87456 24.57212,0.0556 10.07889,4.63403 7.71018,32.15543 -3.90885,45.41582 -0.31877,0.3638 -1.55937,1.80939 -2.75688,3.21241 -2.52254,2.95546 -2.72377,3.07778 -4.42847,2.69182 z m -57.02335,-48.4565 c -1.85833,-0.68743 -1.84644,-0.66829 -1.84644,-2.97168 0,-1.92466 -0.0444,-2.10105 -0.52917,-2.10105 -0.48213,0 -0.52916,0.17639 -0.52916,1.98438 0,2.22114 0.0469,2.1804 -1.5875,1.37815 -1.12541,-0.55239 -1.19431,-0.64962 -1.25776,-1.77503 -0.12631,-2.24002 -0.31258,-2.9004 -0.76871,-2.72536 -0.34835,0.13367 -0.39033,0.44583 -0.24749,1.84005 0.0946,0.92348 0.12188,1.67906 0.0606,1.67906 -0.0613,0 -0.80875,-0.38977 -1.66101,-0.86615 -2.32262,-1.29825 -3.61363,-5.21927 -1.71847,-5.21927 0.43693,0 0.83876,-0.16942 0.9231,-0.38921 0.41443,-1.08 -2.16297,-1.95843 -6.39709,-2.18025 -3.81926,-0.2001 -3.7478,-0.13747 -5.21487,-4.56982 -1.38746,-4.19184 -1.44386,-4.82654 -0.48715,-5.48222 2.23429,-1.53124 2.42561,-2.65134 1.211,-7.08995 -5.39506,-19.71546 -1.30182,-29.89205 13.97037,-34.73299 2.61369,-0.82848 13.35802,-1.07824 15.875,-0.36902 15.94353,4.49248 20.34108,14.28409 15.3345,34.14389 -1.44243,5.72172 -1.32406,6.7593 0.90733,7.9535 2.70341,1.44682 -1.34183,10.07024 -4.72394,10.07024 -2.3195,0 -5.79048,0.62074 -6.66122,1.19127 -0.99227,0.65017 -0.82488,1.45456 0.3027,1.45456 1.10977,0 1.13361,0.16055 0.38821,2.6146 -0.5234,1.72317 -0.58022,1.79401 -2.11667,2.63868 l -1.57883,0.86796 v -1.7377 c 0,-1.36824 -0.0844,-1.7377 -0.39687,-1.7377 -0.31587,0 -0.3978,0.39153 -0.4014,1.91823 l -0.005,1.91823 -1.38455,0.5969 c -1.85536,0.79989 -1.78141,0.85762 -1.78141,-1.39065 0,-1.80799 -0.047,-1.98438 -0.52917,-1.98438 -0.48721,0 -0.52916,0.17639 -0.52916,2.22467 v 2.22467 l -1.63888,0.55346 c -0.90138,0.3044 -1.73482,0.55345 -1.85208,0.55345 -0.11727,0 -0.21321,-1.07156 -0.21321,-2.38125 0,-2.20486 -0.0392,-2.38125 -0.52917,-2.38125 -0.48997,0 -0.52916,0.17639 -0.52916,2.38125 0,2.64828 0.0455,2.60177 -1.85773,1.89773 z m 6.00294,-11.57513 c 1.04229,-1.0423 -1.33004,-8.06934 -3.26689,-9.67678 -0.64727,-0.53719 -4.11275,5.44951 -4.48602,7.74973 -0.31567,1.94524 1.76397,3.08187 3.07853,1.68258 0.81473,-0.86724 1.41106,-0.83468 2.4229,0.13229 1.01527,0.97025 1.37546,0.9882 2.25148,0.11218 z m -12.37776,-8.58534 c 6.05834,-2.827 6.30509,-3.5098 2.18741,-6.05299 -5.58215,-3.44769 -9.46786,-3.78582 -11.18303,-0.97315 -0.77822,1.2762 -0.71618,4.89397 0.0964,5.6208 2.79849,2.50316 5.59887,2.94539 8.89922,1.40534 z m 24.24274,0.14896 c 2.73263,-1.33695 3.03981,-1.74227 3.03981,-4.01094 0,-6.13662 -4.71441,-6.77094 -12.50157,-1.68207 -2.58297,1.68797 -2.66844,2.15493 -0.64085,3.50118 4.68573,3.11114 7.13671,3.6429 10.10261,2.19183 z M 309.71543,187.232 c -8.19292,-4.09937 -9.79629,-6.16953 -11.2373,-14.50878 -1.95051,-11.28778 -6.23955,-16.14777 -14.61816,-16.56412 l -2.83671,-0.14097 -0.26148,0.68776 c -0.39521,1.03946 -2.29591,1.94345 -2.91268,1.38528 -0.43426,-0.393 -1.37141,0.0756 -2.61708,1.30875 -0.0482,0.0477 0.0457,0.33576 0.20862,0.64017 0.5346,0.99891 -0.83821,2.95439 -1.86696,2.65935 -0.55623,-0.15952 -0.82963,-0.13302 -0.90937,0.0881 -0.95569,2.65074 -0.94833,2.56623 -0.24682,2.83294 0.99639,0.37883 0.97556,2.7717 -0.0281,3.229 -0.60182,0.27421 -0.66187,0.42006 -0.51506,1.2511 0.31699,1.7943 0.35381,1.84378 1.19307,1.60309 1.23007,-0.35278 2.41807,1.31439 1.75719,2.46592 l -0.45529,0.79329 0.98967,1.01351 0.98966,1.0135 0.60222,-0.56576 c 0.92272,-0.86685 2.54391,-0.20897 2.73437,1.10961 0.15088,1.04454 2.15543,1.54763 2.77738,0.69705 0.61492,-0.84095 2.4441,-1.1171 2.9839,-0.45048 l 0.48599,0.60018 1.1097,-0.56613 c 0.85871,-0.43808 1.1097,-0.71654 1.1097,-1.23113 0,-0.68512 1.61206,-1.91969 2.3003,-1.76164 0.17484,0.0402 0.44737,-0.16892 0.60561,-0.46459 0.43454,-0.81195 0.79826,-0.64613 0.79826,0.36393 0,4.52453 -14.52745,10.42775 -19.01539,7.7269 -2.06848,-1.24482 -4.70632,-2.54301 -5.16724,-2.54301 -1.43868,0 -1.72811,-2.29623 -1.23392,-9.78958 0.22628,-3.43117 2.10508,-10.01273 3.62753,-12.70751 l 0.79206,-1.40197 6.84209,-2.99943 6.84209,-2.99942 h 2.86264 c 2.68625,0 2.86264,0.0326 2.86264,0.52916 0,0.38985 0.17639,0.52917 0.66995,0.52917 0.36848,0 1.09362,0.17702 1.61144,0.39337 0.71516,0.29882 1.07226,0.32338 1.48554,0.1022 1.00476,-0.53773 3.6414,0.95865 3.6414,2.06662 0,0.48256 0.10506,0.87739 0.23346,0.87739 0.1284,0 0.71998,0.48653 1.31463,1.08118 0.92046,0.92046 1.19504,1.05616 1.84721,0.91292 1.05284,-0.23124 2.68828,2.11358 2.20853,3.16652 -0.5502,1.20756 0.62909,3.25355 1.9342,3.35571 l 1.05574,0.0826 0.4699,1.71979 0.4699,1.71979 -0.7729,0.60984 -0.77291,0.60984 0.50404,1.43407 c 0.27722,0.78874 0.50403,1.60834 0.50403,1.82134 0,0.25543 0.40029,0.4473 1.17573,0.56359 1.16068,0.17405 1.18258,0.1966 1.71126,1.76213 l 0.53554,1.58581 -0.81456,1.01361 -0.81455,1.01361 0.85237,1.84924 c 1.47458,3.19915 1.68066,3.31008 6.51179,3.5051 2.25719,0.0911 4.20705,0.27149 4.33303,0.40082 0.12597,0.12934 0.95825,1.62685 1.84951,3.32782 l 1.62046,3.09265 -1.00581,0.30166 c -0.55319,0.16591 -2.43456,0.36374 -4.18081,0.43961 l -3.175,0.13796 z m 42.35478,2.37089 c -1.73519,-0.40708 -1.73452,-0.43206 0.10532,-3.93494 l 1.60001,-3.0463 1.22406,-0.16777 c 0.67324,-0.0923 2.30877,-0.16844 3.63453,-0.16926 3.50861,-0.002 4.0737,-0.22369 5.22135,-2.04706 1.59822,-2.53922 1.70936,-3.16093 0.77332,-4.32571 l -0.78902,-0.98183 0.54493,-1.61362 c 0.44084,-1.30541 0.654,-1.61432 1.11595,-1.61724 1.03566,-0.007 1.76151,-0.31606 1.77029,-0.75485 0.005,-0.23769 0.22426,-1.05633 0.48782,-1.8192 l 0.47918,-1.38704 -0.75669,-0.59734 -0.75669,-0.59733 0.4699,-1.7198 0.4699,-1.71979 1.07483,-0.0791 c 1.31144,-0.0965 2.47126,-2.13867 1.91186,-3.36642 -0.489,-1.07324 1.15163,-3.365 2.26513,-3.16408 0.71444,0.12891 0.96962,0.002 1.85485,-0.91996 0.56455,-0.58819 1.1301,-1.06944 1.25677,-1.06944 0.12668,0 0.23033,-0.39482 0.23033,-0.87739 0,-1.10965 2.77051,-2.6775 3.70267,-2.09536 0.39325,0.24559 0.70025,0.22906 1.4331,-0.0771 0.51296,-0.21433 1.23413,-0.38969 1.60261,-0.38969 0.49356,0 0.66995,-0.13932 0.66995,-0.52916 0,-0.49689 0.17639,-0.52917 2.89174,-0.52917 h 2.89173 l 4.97962,2.20124 c 2.73879,1.21068 5.79665,2.55014 6.79524,2.97656 2.55725,1.09203 2.68171,1.32408 5.59554,10.43262 1.41785,4.43217 1.20338,13.81723 -0.3242,14.18608 -0.91659,0.22132 -3.85382,1.67659 -5.53211,2.74093 -1.75555,1.11333 -7.70429,0.77797 -10.26316,-0.57859 -4.08961,-2.16806 -8.6219,-5.9747 -8.6219,-7.24146 0,-1.00911 0.36285,-1.18086 0.79375,-0.37571 0.15576,0.29104 0.48737,0.52961 0.73692,0.53015 0.88812,0.002 2.1735,1.01294 2.1735,1.70954 0,0.50643 0.25275,0.78891 1.08644,1.21423 l 1.08644,0.55426 0.6047,-0.56809 c 0.66366,-0.62347 2.67222,-0.32119 2.96681,0.44649 0.35538,0.9261 2.68463,0.41323 2.77245,-0.61045 0.11657,-1.35882 1.7453,-2.08262 2.68977,-1.19533 l 0.59665,0.56052 1.01731,-1.04182 c 1.00857,-1.03286 1.01338,-1.04782 0.56004,-1.7397 -0.68984,-1.05282 0.53104,-2.84107 1.70901,-2.50324 0.83338,0.23901 0.8713,0.18779 1.18794,-1.60456 0.14681,-0.83104 0.0868,-0.97688 -0.51506,-1.2511 -0.99574,-0.45369 -1.02518,-2.84991 -0.0396,-3.22462 l 0.64163,-0.24395 -0.4325,-1.35249 c -0.41533,-1.29875 -0.46754,-1.34948 -1.31375,-1.27658 -0.99172,0.0854 -2.52682,-1.92347 -1.92765,-2.52263 0.76803,-0.76804 -1.58213,-2.86721 -2.39075,-2.13542 -0.58708,0.53129 -2.80999,-0.48108 -2.94231,-1.34001 -0.18776,-1.21879 -5.98898,-0.6837 -9.09935,0.8393 -4.40773,2.15826 -6.78391,6.24502 -8.43459,14.50654 -1.89351,9.47693 -2.95626,10.89696 -11.29844,15.09696 l -5.48677,2.76241 -2.72494,-0.0254 c -1.49871,-0.014 -3.31059,-0.1628 -4.0264,-0.33073 z"
       id="path812" />
  </g>
</svg>
