<?xml version="1.0" encoding="UTF-8" standalone="no"?>
<!-- Created with Inkscape (http://www.inkscape.org/) -->

<svg
   width="680.00586"
   height="680.00586"
   viewBox="0 0 179.91821 179.91821"
   version="1.1"
   id="svg5"
   inkscape:version="1.1 (c68e22c387, 2021-05-23)"
   sodipodi:docname="sanctum.svg"
   xmlns:inkscape="http://www.inkscape.org/namespaces/inkscape"
   xmlns:sodipodi="http://sodipodi.sourceforge.net/DTD/sodipodi-0.dtd"
   xmlns="http://www.w3.org/2000/svg"
   xmlns:svg="http://www.w3.org/2000/svg">
  <sodipodi:namedview
     id="namedview7"
     pagecolor="#ffffff"
     bordercolor="#666666"
     borderopacity="1.0"
     inkscape:pageshadow="2"
     inkscape:pageopacity="0.0"
     inkscape:pagecheckerboard="0"
     inkscape:document-units="mm"
     showgrid="false"
     fit-margin-top="0"
     fit-margin-left="0"
     fit-margin-right="0"
     fit-margin-bottom="0"
     units="px"
     inkscape:zoom="0.76791526"
     inkscape:cx="304.72112"
     inkscape:cy="271.51433"
     inkscape:window-width="1920"
     inkscape:window-height="1051"
     inkscape:window-x="-9"
     inkscape:window-y="-9"
     inkscape:window-maximized="1"
     inkscape:current-layer="layer2" />
  <defs
     id="defs2" />
  <g
     inkscape:groupmode="layer"
     id="layer2"
     inkscape:label="Layer 2"
     style="display:inline;opacity:1"
     transform="translate(-0.2635498,0.13280843)">
    <path
       id="path61"
       style="color:#000000;fill:#current;stroke-width:3.77953;-inkscape-stroke:none"
       d="M 340.99805,-0.50195312 C 153.29842,-0.50195312 0.99609481,151.80037 0.99609375,339.5 0.9961001,527.19965 153.29842,679.50391 340.99805,679.50391 c 187.69963,0 340.0039,-152.30426 340.0039,-340.00391 0,-187.69963 -152.30427,-340.00195951 -340.0039,-340.00195312 z M 322.43555,13.03125 c 25.01817,114.74731 -66.85196,198.71388 -97.15039,244.1582 -2.53822,3.80705 -5.01545,7.4788 -7.48438,11.12891 C 183.35499,203.50195 165.05121,133.56085 161.90039,65.849609 208.49301,35.30308 263.35855,16.333983 322.43555,13.03125 Z m 60.00781,2.066406 C 522.05443,32.735619 634.15173,138.30935 661.5625,274.62305 c -115.82693,-7.79617 -207.30874,70.82747 -312.82031,145.375 -0.88464,0.62502 -1.77298,1.26396 -2.65821,1.89062 C 298.05587,383.89866 259.76063,339.2576 230.76367,291.16992 307.00741,186.81477 376.0216,130.90197 382.44336,15.097656 Z M 102.48047,115.7793 c 26.69684,66.89241 59.46623,126.84831 96.16015,180.30468 -27.47935,38.9239 -50.41782,67.38797 -70.54492,88.69922 C 94.951086,356.31287 57.492365,330.3102 15.466797,308.58984 22.427562,234.27534 54.220347,167.21609 102.48047,115.7793 Z m 110.26172,200.25976 c 33.64762,46.3137 70.20566,87.48327 108.13086,123.83985 -29.57264,21.23459 -58.86963,42.64358 -85.94727,61.93164 -25.19899,-34.90239 -55.08788,-69.80007 -90.12305,-102.13867 23.01481,-27.60891 47.37846,-56.06863 67.93946,-83.63282 z m 368.56445,11.5586 c 27.57324,-0.90198 55.64751,3.99378 86.66602,14.14843 -0.48255,71.67072 -23.9849,137.83956 -63.4961,191.4961 -97.84837,-17.08038 -178.60109,-52.61016 -243.12109,-99.76172 3.50042,-2.48816 7.01386,-5.02368 10.55859,-7.66797 86.9693,-64.87707 147.00729,-96.1741 209.39258,-98.21484 z M 17.472656,387.18945 c 22.384914,4.68439 49.163511,14.05166 76.914063,29.01758 C 72.224951,433.85133 52.97291,442.83335 33.154297,450.0293 25.939923,429.92257 20.642283,408.90403 17.472656,387.18945 Z m 101.755864,43.80078 c 32.86542,21.47575 65.21264,50.64996 90.80078,88.33399 -45.55093,31.6409 -82.00647,54.05146 -97.9961,53.66016 C 95.049984,556.32732 79.879411,537.8353 66.839844,517.82031 73.095238,493.28207 93.587977,463.30632 119.22852,430.99023 Z m 214.58789,21.07422 c 68.55846,63.27216 140.90646,111.02877 208.22656,145.38867 -55.44917,43.26879 -125.21942,69.05079 -201.04492,69.05079 -5.48376,0 -10.93423,-0.14173 -16.35157,-0.40821 -16.75193,-43.21224 -43.09306,-97.04076 -80.80273,-151.65234 26.6656,-23.7286 57.08207,-41.08319 89.97266,-62.37891 z m -112.49219,85.23633 c 19.4323,33.54096 33.43835,73.10703 38.55859,119.06641 -30.50256,-7.77828 -59.27787,-19.85453 -85.66601,-35.52539 13.11708,-35.99483 28.98723,-62.40454 47.10742,-83.54102 z"
       transform="scale(0.26458333)" />
  </g>
</svg>
