<?xml version="1.0" encoding="UTF-8" standalone="no"?>
<!-- Created with Inkscape (http://www.inkscape.org/) -->

<svg
   width="178.40123mm"
   height="177.20326mm"
   viewBox="0 0 178.40123 177.20326"
   version="1.1"
   id="svg5"
   inkscape:version="1.1 (c68e22c387, 2021-05-23)"
   sodipodi:docname="shield.svg"
   xmlns:inkscape="http://www.inkscape.org/namespaces/inkscape"
   xmlns:sodipodi="http://sodipodi.sourceforge.net/DTD/sodipodi-0.dtd"
   xmlns="http://www.w3.org/2000/svg"
   xmlns:svg="http://www.w3.org/2000/svg">
  <sodipodi:namedview
     id="namedview7"
     pagecolor="#ffffff"
     bordercolor="#666666"
     borderopacity="1.0"
     inkscape:pageshadow="2"
     inkscape:pageopacity="0.0"
     inkscape:pagecheckerboard="0"
     inkscape:document-units="mm"
     showgrid="false"
     fit-margin-top="0"
     fit-margin-left="0"
     fit-margin-right="0"
     fit-margin-bottom="0"
     inkscape:zoom="0.76791526"
     inkscape:cx="334.02123"
     inkscape:cy="358.76354"
     inkscape:window-width="1920"
     inkscape:window-height="1051"
     inkscape:window-x="-9"
     inkscape:window-y="-9"
     inkscape:window-maximized="1"
     inkscape:current-layer="layer1" />
  <defs
     id="defs2" />
  <g
     inkscape:label="Layer 1"
     inkscape:groupmode="layer"
     id="layer1"
     transform="translate(-16.641026,-53.859686)">
    <path
       style="fill:current;stroke-width:0.264583"
       d="M 96.291086,230.80897 C 24.577266,222.5615 -8.4884639,138.63567 38.544846,84.240285 74.313686,42.872582 140.2411,43.908843 174.88694,86.383341 c 44.70767,54.809909 10.78648,136.554499 -59.94272,144.452249 -2.83406,0.31646 -15.831264,0.29791 -18.653134,-0.0266 z m 16.801044,-4.48408 c 14.15895,-1.23781 27.84659,-6.03431 40.01348,-14.02173 1.75754,-1.15381 1.80464,-0.90241 -0.94663,-5.05186 -1.28724,-1.94142 -4.57542,-6.92313 -7.30707,-11.07047 -2.73165,-4.14734 -6.76837,-10.27348 -8.97049,-13.61363 -2.20213,-3.34016 -6.04677,-9.17423 -8.54366,-12.96459 -2.49688,-3.79036 -4.72548,-7.1297 -4.95246,-7.42074 -0.45626,-0.58506 -0.48256,-0.56315 -4.0015,3.33465 -0.7276,0.80594 -3.88014,4.29861 -7.00564,7.7615 l -5.68272,6.29615 -1.44176,-1.5524 C 87.458826,159.93805 88.982156,160.9393 85.689366,165.81989 c -1.49723,2.2192 -3.61389,5.34459 -4.70369,6.94532 -3.88479,5.70608 -6.33862,9.31781 -9.07782,13.36145 -1.52796,2.25558 -4.31061,6.36323 -6.18367,9.12813 -1.87307,2.76489 -4.8269,7.11068 -6.56408,9.65729 -3.97766,5.83107 -3.90057,5.12917 -0.78998,7.19302 16.47974,10.93417 35.5678,15.8943 54.722004,14.21979 z M 45.104916,200.49298 c 0.25765,-0.39322 1.61079,-2.16561 3.007,-3.93864 1.3962,-1.77304 7.18198,-9.21465 12.85729,-16.53691 5.67532,-7.32227 12.08949,-15.57366 14.25373,-18.33644 3.58516,-4.57666 3.90493,-5.07133 3.59701,-5.5644 -2.0727,-3.31891 -13.36008,-16.53149 -13.75877,-16.10549 -0.24446,0.26122 -4.35603,4.76119 -9.13682,9.99994 -10.30236,11.28923 -21.60574,23.64996 -24.65463,26.96086 -3.1305,3.39955 0.34096,10.39745 10.92639,22.02584 2.25839,2.4809 2.26182,2.48266 2.9088,1.49524 z m 127.867344,-6.92555 c 3.23746,-4.27047 6.16537,-8.87482 8.21016,-12.91106 l 0.55963,-1.10468 -7.73433,-8.43617 c -6.38086,-6.95988 -12.53752,-13.68839 -27.98559,-30.58499 l -0.93668,-1.02451 -4.01159,4.98793 c -2.20637,2.74336 -5.26474,6.53573 -6.79636,8.42751 -3.30779,4.08559 -3.16467,3.23697 -1.01089,5.99391 0.98227,1.25734 2.46389,3.16152 3.29251,4.2315 0.82861,1.06998 4.37158,5.63636 7.87327,10.1475 3.50168,4.51115 8.95256,11.53584 12.11307,15.61042 3.1605,4.07458 6.63527,8.5317 7.72172,9.9047 l 1.97536,2.49637 2.19922,-2.33164 c 1.20957,-1.28241 3.2483,-3.71546 4.5305,-5.40679 z M 35.041356,169.32562 c 3.31628,-3.63802 6.58164,-7.20989 7.25636,-7.9375 0.67472,-0.7276 4.43471,-4.83526 8.35553,-9.12812 3.92082,-4.29287 8.47097,-9.25746 10.11143,-11.03243 3.63886,-3.93722 3.8069,-2.83529 -1.41985,-9.31042 -2.42138,-2.99972 -5.36818,-6.67286 -6.54844,-8.16255 -2.65212,-3.34743 -0.29136,-4.75807 -17.59505,10.51373 l -14.8394,13.09688 0.14655,1.98437 c 0.62333,8.44062 4.05185,21.76037 7.03678,27.33776 0.32658,0.61022 -0.60296,1.5231 7.49609,-7.36172 z m 148.839254,5.48963 c 3.43416,-8.23254 5.36651,-16.20361 6.20549,-25.59796 l 0.1654,-1.85208 -3.90847,-3.43959 c -2.14966,-1.89177 -5.59009,-4.92786 -7.64541,-6.74687 -21.49112,-19.0202 -17.34858,-17.72012 -25.29176,-7.9375 -7.83746,9.65242 -7.85297,7.21526 0.10138,15.92806 22.14466,24.25618 29.18952,31.89031 29.34426,31.79882 0.0957,-0.0566 0.55877,-1.02536 1.02911,-2.15288 z m -64.82119,-14.22088 c 4.84469,-5.38427 9.66515,-10.74208 10.71213,-11.90625 1.04698,-1.16416 4.26362,-4.73604 7.14808,-7.9375 2.88446,-3.20146 11.61775,-12.90505 19.40732,-21.56354 7.78956,-8.65849 14.59654,-16.21896 15.12662,-16.80104 0.53008,-0.58208 1.92568,-2.12453 3.10134,-3.427667 l 2.13756,-2.36933 -1.48597,-2.12858 c -3.15905,-4.525176 -11.45743,-13.902546 -12.30288,-13.902546 -0.13874,0 -2.23527,1.586788 -4.65895,3.526197 -3.49653,2.797887 -32.50017,25.911866 -33.84181,26.969676 -0.24774,0.19534 -0.55674,-0.23455 -1.22913,-1.71002 -0.9229,-2.02517 -4.05206,-8.67476 -6.80554,-14.462037 -2.83472,-5.958046 1.85631,-10.097044 8.29946,-7.322814 1.42793,0.614823 0.11653,-3.749418 -1.49631,-4.979588 -2.26607,-1.728417 -3.15846,-1.87312 -12.14307,-1.969048 l -8.14928,-0.08701 -1.15507,0.676915 c -2.392064,1.401834 -2.458604,1.51697 -9.720944,16.820225 -0.72512,1.52797 -2.27913,4.802187 -3.45337,7.276047 -1.17424,2.47385 -2.30602,4.76322 -2.51508,5.08748 l -0.3801,0.58956 -1.89157,-1.47883 C 75.635646,103.14082 53.530626,85.748132 50.945776,83.6735 l -3.20573,-2.572957 -2.78087,2.852269 c -3.86031,3.959424 -10.05311,11.837751 -10.05041,12.785871 5.5e-4,0.19563 2.17344,2.74403 4.82864,5.663107 2.6552,2.91907 8.16572,8.99126 12.2456,13.49375 4.07987,4.50248 13.24442,14.61571 20.36566,22.47383 7.12124,7.85813 16.92862,18.69281 21.79417,24.07709 4.86555,5.38427 9.496544,10.46208 10.291084,11.28401 l 1.44462,1.49444 2.18617,-2.42048 c 1.2024,-1.33126 6.15001,-6.82579 10.99471,-12.21006 z M 27.362786,138.00668 c 2.90803,-2.56541 6.89663,-6.09601 8.86354,-7.84576 1.96692,-1.74976 5.57051,-4.94349 8.00799,-7.09719 2.43747,-2.1537 4.43177,-4.03144 4.43177,-4.17274 0,-0.32301 -15.86941,-19.954777 -16.0993,-19.916157 -0.50706,0.0852 -4.50173,7.901957 -6.20525,12.142457 -3.81221,9.48952 -5.61219,17.93072 -5.92236,27.77354 l -0.16651,5.28396 0.9014,-0.75186 c 0.49577,-0.41352 3.28069,-2.85084 6.18872,-5.41625 z m 163.118644,4.2653 c -0.003,-4.38233 -0.93019,-12.50001 -1.98643,-17.39636 -1.11572,-5.17203 -1.92135,-7.74803 -4.63384,-14.81666 -0.70135,-1.82768 -4.04434,-8.45498 -5.10655,-10.123467 l -0.71789,-1.12764 -0.73958,0.86305 c -0.40677,0.474677 -2.94423,3.601487 -5.63881,6.948467 -2.69459,3.34698 -5.9908,7.44101 -7.32491,9.09785 -1.33411,1.65684 -2.42566,3.09893 -2.42566,3.20464 0,0.10572 4.37554,4.06219 9.72344,8.79218 5.34789,4.72998 11.68796,10.34 14.08906,12.46671 5.09048,4.50879 4.76286,4.36489 4.76117,2.09123 z"
       id="path926" />
  </g>
</svg>
